<?xml version="1.0" encoding="utf-8"?>
<!-- Generator: Adobe Illustrator 28.2.0, SVG Export Plug-In . SVG Version: 6.00 Build 0)  -->
<svg version="1.1" id="Layer_1" xmlns="http://www.w3.org/2000/svg" xmlns:xlink="http://www.w3.org/1999/xlink" x="0px" y="0px"
	 viewBox="0 0 200 2000" style="enable-background:new 0 0 200 200;" xml:space="preserve">
<style type="text/css">
	.st0{fill:none;}
</style>
<g>
	<path d="M1033.05,971.03c0,0.02,0,0.03,0,0.05c-0.01-0.02-0.02-0.03-0.04-0.05C1033.03,971.03,1033.04,971.03,1033.05,971.03z"/>
	<path d="M1024.54,999.65c0.03,0,0.05,0,0.08,0c-0.03,0.01-0.06,0.02-0.09,0.02C1024.53,999.66,1024.53,999.65,1024.54,999.65z"/>
	<path d="M975.35,1014.3c0.01-0.01,0.01-0.01,0.02-0.02c0,0.01,0,0.01,0.01,0.02C975.37,1014.3,975.36,1014.3,975.35,1014.3z"/>
	<g>
		<path d="M1016.77,1009.83c18.07-14.25,20.94-37.99,12.17-58.36c-4.45-11.12-11.28-21.2-14.61-32.78
			c-3.01-10.38-1.96-23.07,6.31-30.84c2.85-2.74,5.61-4.81,9.45-6.02c2.22-0.79,4.57-1.14,6.91-1.33c0.93-0.14,2.06,0.09,2.84-0.43
			c0.83-0.95-1.62-2.4-2.18-2.94c-1.61-1.15-3.42-1.96-5.34-2.4c-3.29-0.76-6.9-0.46-10.19,0.31c-1.7,0.34-3.35,1.13-5.08,1.3
			c-2.16,0.1-4.13-1.09-6.29-1.21c-9.8-1.1-18.06,5.31-26.61,9.03c-2.78,1.25-5.65,2.37-8.64,3.01c-3.05,0.64-5.68,0.54-1.34,2.87
			c2.02,1.08,4.19,1.99,6.4,2.66c4.67,1.26,8.21,1.04,1.37,4.03c-2.21,0.93-4.55,1.73-6.86,2.3c-0.59,0.23-4.45,0.68-2.46,1.57
			c4.5,1.78,9.54,2.16,14.35,1.65c1.23-0.11,3.66-0.7,2.52,1.42c-0.7,1.37-1.44,2.81-2.06,4.24c-3,6.3-4.8,13.07-6.52,19.8
			c-0.82,2.02-2.7-1.05-3.58-1.65c-3.57-3.42-7.04-7.01-10.11-10.89c-2.7-3.59-5.18-7.51-6.42-11.86
			c-3.58-13.07,1.63-26.81,8.5-37.88c1.43-2.27-0.19-1.54-1.64-0.81c-1.74,0.85-3.52,1.78-5.19,2.81c-2.12,1.34-4.17,2.73-6.08,4.3
			c-3.4,3.09-2.21-1.15-2.04-3.25c2.01-14.64,11.04-27.25,22.26-36.46c1.52-1.22,3.05-2.45,4.6-3.63c0.52-0.39,1.05-0.75,1.57-1.18
			c0.43-0.36,0.64-0.62,0.48-0.75c-0.33-0.17-0.94-0.06-1.38,0c-3.27,0.55-6.52,1.26-9.7,2.15c-35.16,9.45-48.9,41.54-43.67,75.6
			c1.17,7.02,3.07,20.03-4.19,24.3c-3.77,1.85-7.14-1.87-8.83-4.9c-3.37-6.04-4.18-13.11-4.52-19.91
			c-0.23-3.69,0.09-7.42,0.07-11.11c-0.01-0.32-0.25-0.19-0.38,0.13c-0.12,0.21-0.25,0.56-0.38,0.9
			c-1.96,5.33-3.39,10.84-4.33,16.44c-6.3,35.61,11.65,64.15,45.8,75.29c2.47,0.9,4.93,1.73,7.5,2.31c4.36,0.88-4.85,1.84-5.62,1.99
			c-8.49,0.82-17.17-0.26-25.08-3.49c-0.97-0.23-4.92-2.71-3.01-0.09c7.16,9.3,16.19,17.18,26.12,23.42
			c2.01,1.24,4.08,2.39,6.16,3.5c2.03,1.02,4.04,2.32,6.29,2.83c3.24,0.49,6.53-0.24,9.75-0.76c4.41-0.91,8.76-2.16,12.76-4.27
			c1.19-0.6,2.27-1.2,3.36-1.9c2.59-1.83,2.48-0.22,1.67,1.87c-0.84,2.34-2.17,4.51-3.69,6.47c-1.13,1.6-2.85,2.82-3.86,4.41
			c-0.11,0.28,0.25,0.48,0.71,0.47c4.71-0.32,9.32-1.31,13.73-2.72c3.38-1.17,6.81-2.34,9.96-4.05c2.85-1.69,5.67-3.46,8.26-5.52
			L1016.77,1009.83z M1010.57,882.47c-0.8,1.73-1.93,3.32-3.61,4.24c-1.86,1.12-4.26,1.23-6.38,0.85c-0.71-0.13-1.41-0.31-2.02-0.53
			c-0.39-0.15-0.69-0.31-0.78-0.49c-0.2-0.51,0.75-0.85,1.15-1.07c3.7-1.81,7.4-3.47,11.02-5.33c0.37-0.19,0.91-0.57,1.24-0.43
			l0.01,0.01C1011.65,880.14,1010.81,881.92,1010.57,882.47z"/>
		<path d="M1062.21,983.63c29.05-11.18,45.42-36.09,42.17-67.31l0-0.04c-0.79-8.06-2.75-16.01-5.54-23.6
			c-0.47-0.98-0.52-0.01-0.5,0.62c0.3,5.45,0.4,10.94-0.33,16.37c-0.88,6.19-2.06,12.93-6.71,17.49c-2.85,2.84-6.93,2.35-9.01-1.05
			c-1.96-3.08-2.44-6.87-2.56-10.46c-0.12-7.54,2.27-14.8,2.17-22.35c0.46-17.22-4.1-35.62-16.46-48.18
			c-9.75-10.24-23.43-16-37.19-18.4c-1.66-0.29-3.14-0.2-0.9,1.42c2.05,1.52,4.08,3.1,6,4.78c2.66,2.19,5.21,4.55,7.51,7.13
			c4.43,4.87,8.15,10.4,10.68,16.49c1.63,4.74,3.19,9.68,3.58,14.71c0.22,3.17-2.16,0.44-3.29-0.29c-2.72-1.96-5.59-3.8-8.53-5.4
			c-2.84-1.37-5.76-3.34-2.58,1.46c1.58,2.6,2.96,5.28,4.23,8.05c4.13,9.21,6.26,19.97,2.99,29.76c-1.21,3.5-3.3,6.75-5.47,9.71
			c-0.95,1.23-2.04,2.46-3.05,3.7c-1.06,1.46-2.34,1.96-3.71,0.47c-7.25-7.3-9.6-16.69-5.34-26.24c1.25-3.99-5.13,3.56-5.41,4.33
			c-5.7,8.91-1.26,19.82,2.57,28.59c1.13,2.26,2.02,4.61,3.03,6.91c1.43,3.15,3.14,6.15,4.78,9.2c6.05,12.39,10.77,26.15,8.78,40.09
			c-1.51,12.76-6.58,23.98-15.97,32.84c-2.8,2.58-5.88,4.91-9.23,6.68c-1.73,1.01-4.15,1.87-5.71,2.77
			c-0.18,0.27,0.35,0.22,1.04,0.2c6.5-0.57,12.95-1.92,19.21-3.76c14.49-4.35,28.03-11.94,39.15-22.22
			c3.33-2.97,6.43-6.22,9.28-9.66c0.8-0.97,2.15-2.35,2.56-3.41c0.03-0.79-3.49,1.2-4.07,1.3c-9.47,3.75-19.96,4.38-29.94,2.57
			c-0.47-0.05-1.91-0.42-1.86-0.77c0.64-0.57,2.85-0.76,3.84-1.15C1055.75,986.14,1059.01,984.94,1062.21,983.63z"/>
	</g>
	<path d="M1098.22,893.58l0.01-0.01c-0.02-0.02-0.08-0.13-0.07-0.07C1098.16,893.55,1098.15,893.63,1098.22,893.58z"/>
</g>
<g>
	<polygon class="st0" points="967.56,1122 1026.3,1122 996.66,1049.5 	"/>
	<path d="M896.14,1017.71c1.89,0,4.31,0.54,5.66,0.54c1.35,0,2.43-1.08,2.43-2.43c0-1.62-1.08-2.42-4.04-2.42
		c-2.16,0-15.9,0.54-35.03,0.54c-16.44,0-32.34-0.54-34.22-0.54c-3.23,0-4.31,0.81-4.31,2.42c0,1.35,1.08,2.43,2.43,2.43
		c1.35,0,3.77-0.54,5.66-0.54c11.86,0,17.52,9.7,17.52,17.25v62.25h-86.77v-62.25c0-7.55,5.66-17.25,17.52-17.25
		c1.89,0,4.31,0.54,5.66,0.54c1.35,0,2.43-1.08,2.43-2.43c0-1.62-1.08-2.42-4.04-2.42c-2.16,0-15.9,0.54-35.03,0.54
		c-16.44,0-32.34-0.54-34.22-0.54c-3.23,0-4.31,0.81-4.31,2.42c0,1.35,1.08,2.43,2.43,2.43c1.35,0,3.77-0.54,5.66-0.54
		c11.86,0,17.52,9.7,17.52,17.25v139.32c0,7.54-5.66,17.25-17.52,17.25c-1.89,0-4.31-0.54-5.66-0.54c-1.35,0-2.43,1.08-2.43,2.43
		c0,1.62,1.08,2.43,4.31,2.43c1.89,0,17.79-0.54,34.22-0.54c19.13,0,32.88,0.54,35.03,0.54c2.96,0,4.04-0.81,4.04-2.43
		c0-1.35-1.08-2.43-2.43-2.43c-1.35,0-3.77,0.54-5.66,0.54c-11.86,0-17.52-9.7-17.52-17.25v-69.53h86.77v69.53
		c0,7.54-5.66,17.25-17.52,17.25c-1.89,0-4.31-0.54-5.66-0.54c-1.35,0-2.43,1.08-2.43,2.43c0,1.62,1.08,2.43,4.31,2.43
		c1.89,0,17.79-0.54,34.22-0.54c19.13,0,32.88,0.54,35.03,0.54c2.96,0,4.04-0.81,4.04-2.43c0-1.35-1.08-2.43-2.43-2.43
		c-1.35,0-3.77,0.54-5.66,0.54c-11.86,0-17.52-9.7-17.52-17.25v-139.32C878.62,1027.41,884.28,1017.71,896.14,1017.71z"/>
	<path d="M1101.49,1190.98c-1.35,0-3.77,0.54-5.66,0.54c-11.59,0-15.36-8.62-18.32-15.36l-62.7-153.13
		c-4.35,1.44-15.94,4.96-27.23,5.76c0.79,2.54,4.78,8.73,4.78,11.27c0,1.35-0.27,2.43-0.81,3.77l-52.82,130.43
		c-2.96,7.81-9.7,17.25-19.4,17.25c-1.89,0-4.31-0.54-5.66-0.54c-1.35,0-2.43,1.08-2.43,2.43c0,1.62,1.08,2.43,4.31,2.43
		c1.89,0,12.4-0.54,25.6-0.54c12.94,0,24.25,0.54,26.41,0.54c2.96,0,4.04-0.81,4.04-2.43c0-1.35-1.08-2.43-2.43-2.43
		c-1.35,0-3.77,0.54-5.66,0.54c-21.83,0-20.21-9.43-17.79-15.9l18.59-46.08h64.95l18.32,44.73c2.96,8.62,4.04,17.25-15.9,17.25
		c-1.89,0-4.31-0.54-5.66-0.54s-2.43,1.08-2.43,2.43c0,1.62,1.08,2.43,4.31,2.43c1.89,0,20.48-0.54,36.92-0.54
		c21.83,0,32.88,0.54,35.03,0.54c2.96,0,4.04-0.81,4.04-2.43C1103.91,1192.06,1102.84,1190.98,1101.49,1190.98z M967.56,1122
		l29.1-72.49l29.64,72.49H967.56z"/>
	<path d="M1254.56,1139.51c-1.89,0-2.96,1.08-2.96,2.96c0,1.08,0.27,3.23,0.27,5.93c0,6.74-14.01,38.81-43.12,38.81
		c-18.86,0-37.46,0.27-56.32,0.27c-7.55,0-4.58-5.12-4.58-5.66c63.06-102.67,91.08-147.67,97.82-161.15c1.35-2.7,2.16-2.7,2.16-4.31
		c0-1.89-1.35-2.96-2.96-2.96c-17.52,0-35.3,0.54-52.82,0.54h-50.39c-5.12,0-9.43-2.96-12.13-2.96c-1.62,0-2.96,1.08-2.96,2.96
		l-5.12,44.73c0,1.62,1.35,2.96,2.97,2.96c1.89,0,2.96-1.35,2.96-2.96c0-1.35-0.27-2.16-0.27-5.12c0-7.01,10.24-32.07,43.39-32.07
		h45.54l-105.1,171.39c-0.81,1.35,1.35,2.97,3.5,2.97c23.44-0.27,46.62-0.27,70.07-0.54c21.56,0.27,43.39,0,64.95,0
		c1.62,0,2.96-1.35,2.96-2.96l5.12-49.85C1257.52,1140.59,1256.18,1139.51,1254.56,1139.51z"/>
</g>
</svg>
